<mxfile host="app.diagrams.net" modified="2023-04-25T14:19:25.113Z" agent="Mozilla/5.0 (Windows NT 10.0; Win64; x64) AppleWebKit/537.36 (KHTML, like Gecko) Chrome/112.0.0.0 Safari/537.36" etag="r7iOLNWu9EXnpQO1bQY-" version="21.2.1" type="device">
  <diagram name="Page-1" id="LriF47Hlu0zG1HeROKeZ">
    <mxGraphModel dx="2049" dy="1151" grid="1" gridSize="10" guides="0" tooltips="1" connect="1" arrows="1" fold="1" page="1" pageScale="1" pageWidth="850" pageHeight="1100" math="0" shadow="0">
      <root>
        <mxCell id="0" />
        <mxCell id="1" parent="0" />
        <mxCell id="PmTxJQ6TxqtGZhDE5tPC-84" style="edgeStyle=orthogonalEdgeStyle;rounded=0;orthogonalLoop=1;jettySize=auto;html=1;exitX=0.5;exitY=0;exitDx=0;exitDy=0;endArrow=block;endFill=0;entryX=0;entryY=0.5;entryDx=0;entryDy=0;" parent="1" source="PmTxJQ6TxqtGZhDE5tPC-6" target="PmTxJQ6TxqtGZhDE5tPC-2" edge="1">
          <mxGeometry relative="1" as="geometry">
            <mxPoint x="700" y="73" as="targetPoint" />
            <Array as="points">
              <mxPoint x="120" y="73" />
            </Array>
          </mxGeometry>
        </mxCell>
        <mxCell id="PmTxJQ6TxqtGZhDE5tPC-1" value="User" style="swimlane;fontStyle=1;align=center;verticalAlign=top;childLayout=stackLayout;horizontal=1;startSize=26;horizontalStack=0;resizeParent=1;resizeParentMax=0;resizeLast=0;collapsible=1;marginBottom=0;whiteSpace=wrap;html=1;" parent="1" vertex="1">
          <mxGeometry x="700" width="160" height="120" as="geometry" />
        </mxCell>
        <mxCell id="PmTxJQ6TxqtGZhDE5tPC-2" value="-Name&lt;br&gt;-Surname&amp;nbsp;&lt;br&gt;-Email&lt;br&gt;-Password&lt;br&gt;-Address&lt;br&gt;-Phone_Number" style="text;strokeColor=none;fillColor=none;align=left;verticalAlign=top;spacingLeft=4;spacingRight=4;overflow=hidden;rotatable=0;points=[[0,0.5],[1,0.5]];portConstraint=eastwest;whiteSpace=wrap;html=1;" parent="PmTxJQ6TxqtGZhDE5tPC-1" vertex="1">
          <mxGeometry y="26" width="160" height="94" as="geometry" />
        </mxCell>
        <mxCell id="PmTxJQ6TxqtGZhDE5tPC-6" value="Company" style="swimlane;fontStyle=1;align=center;verticalAlign=top;childLayout=stackLayout;horizontal=1;startSize=26;horizontalStack=0;resizeParent=1;resizeParentMax=0;resizeLast=0;collapsible=1;marginBottom=0;whiteSpace=wrap;html=1;" parent="1" vertex="1">
          <mxGeometry x="40" y="200" width="160" height="60" as="geometry" />
        </mxCell>
        <mxCell id="PmTxJQ6TxqtGZhDE5tPC-9" value="-Company_ID" style="text;strokeColor=none;fillColor=none;align=left;verticalAlign=top;spacingLeft=4;spacingRight=4;overflow=hidden;rotatable=0;points=[[0,0.5],[1,0.5]];portConstraint=eastwest;whiteSpace=wrap;html=1;" parent="PmTxJQ6TxqtGZhDE5tPC-6" vertex="1">
          <mxGeometry y="26" width="160" height="34" as="geometry" />
        </mxCell>
        <mxCell id="PmTxJQ6TxqtGZhDE5tPC-14" value="Customer" style="swimlane;fontStyle=1;align=center;verticalAlign=top;childLayout=stackLayout;horizontal=1;startSize=26;horizontalStack=0;resizeParent=1;resizeParentMax=0;resizeLast=0;collapsible=1;marginBottom=0;whiteSpace=wrap;html=1;" parent="1" vertex="1">
          <mxGeometry x="410" y="200" width="160" height="70" as="geometry" />
        </mxCell>
        <mxCell id="PmTxJQ6TxqtGZhDE5tPC-15" value="-Coupons&lt;br&gt;-Customer_ID" style="text;strokeColor=none;fillColor=none;align=left;verticalAlign=top;spacingLeft=4;spacingRight=4;overflow=hidden;rotatable=0;points=[[0,0.5],[1,0.5]];portConstraint=eastwest;whiteSpace=wrap;html=1;" parent="PmTxJQ6TxqtGZhDE5tPC-14" vertex="1">
          <mxGeometry y="26" width="160" height="44" as="geometry" />
        </mxCell>
        <mxCell id="PmTxJQ6TxqtGZhDE5tPC-18" value="Sell new/used" style="swimlane;fontStyle=1;align=center;verticalAlign=top;childLayout=stackLayout;horizontal=1;startSize=26;horizontalStack=0;resizeParent=1;resizeParentMax=0;resizeLast=0;collapsible=1;marginBottom=0;whiteSpace=wrap;html=1;" parent="1" vertex="1">
          <mxGeometry x="50" y="550" width="160" height="70" as="geometry" />
        </mxCell>
        <mxCell id="PmTxJQ6TxqtGZhDE5tPC-19" value="-Condition&lt;br&gt;-Product_ID" style="text;strokeColor=none;fillColor=none;align=left;verticalAlign=top;spacingLeft=4;spacingRight=4;overflow=hidden;rotatable=0;points=[[0,0.5],[1,0.5]];portConstraint=eastwest;whiteSpace=wrap;html=1;" parent="PmTxJQ6TxqtGZhDE5tPC-18" vertex="1">
          <mxGeometry y="26" width="160" height="44" as="geometry" />
        </mxCell>
        <mxCell id="PmTxJQ6TxqtGZhDE5tPC-22" value="Product" style="swimlane;fontStyle=1;align=center;verticalAlign=top;childLayout=stackLayout;horizontal=1;startSize=26;horizontalStack=0;resizeParent=1;resizeParentMax=0;resizeLast=0;collapsible=1;marginBottom=0;whiteSpace=wrap;html=1;" parent="1" vertex="1">
          <mxGeometry x="160" y="720" width="160" height="100" as="geometry" />
        </mxCell>
        <mxCell id="PmTxJQ6TxqtGZhDE5tPC-23" value="-Product_ID&lt;br&gt;-Product_Description&lt;br&gt;-Produt_Picture&lt;br&gt;-Product_Price" style="text;strokeColor=none;fillColor=none;align=left;verticalAlign=top;spacingLeft=4;spacingRight=4;overflow=hidden;rotatable=0;points=[[0,0.5],[1,0.5]];portConstraint=eastwest;whiteSpace=wrap;html=1;" parent="PmTxJQ6TxqtGZhDE5tPC-22" vertex="1">
          <mxGeometry y="26" width="160" height="74" as="geometry" />
        </mxCell>
        <mxCell id="PmTxJQ6TxqtGZhDE5tPC-26" value="Sell used" style="swimlane;fontStyle=1;align=center;verticalAlign=top;childLayout=stackLayout;horizontal=1;startSize=26;horizontalStack=0;resizeParent=1;resizeParentMax=0;resizeLast=0;collapsible=1;marginBottom=0;whiteSpace=wrap;html=1;" parent="1" vertex="1">
          <mxGeometry x="310" y="600" width="160" height="52" as="geometry" />
        </mxCell>
        <mxCell id="PmTxJQ6TxqtGZhDE5tPC-30" value="Track delivery" style="swimlane;fontStyle=1;align=center;verticalAlign=top;childLayout=stackLayout;horizontal=1;startSize=26;horizontalStack=0;resizeParent=1;resizeParentMax=0;resizeLast=0;collapsible=1;marginBottom=0;whiteSpace=wrap;html=1;" parent="1" vertex="1">
          <mxGeometry x="300" y="900" width="160" height="90" as="geometry" />
        </mxCell>
        <mxCell id="PmTxJQ6TxqtGZhDE5tPC-31" value="-Order_ID&lt;br&gt;-Courier_Number&lt;br&gt;-Estimated_Arrival&lt;br&gt;-Current_Location" style="text;strokeColor=none;fillColor=none;align=left;verticalAlign=top;spacingLeft=4;spacingRight=4;overflow=hidden;rotatable=0;points=[[0,0.5],[1,0.5]];portConstraint=eastwest;whiteSpace=wrap;html=1;" parent="PmTxJQ6TxqtGZhDE5tPC-30" vertex="1">
          <mxGeometry y="26" width="160" height="64" as="geometry" />
        </mxCell>
        <mxCell id="PmTxJQ6TxqtGZhDE5tPC-34" value="Service" style="swimlane;fontStyle=1;align=center;verticalAlign=top;childLayout=stackLayout;horizontal=1;startSize=26;horizontalStack=0;resizeParent=1;resizeParentMax=0;resizeLast=0;collapsible=1;marginBottom=0;whiteSpace=wrap;html=1;" parent="1" vertex="1">
          <mxGeometry x="510" y="700" width="160" height="110" as="geometry" />
        </mxCell>
        <mxCell id="PmTxJQ6TxqtGZhDE5tPC-35" value="-Orders&lt;br&gt;-Faulty_Product&lt;br&gt;-Problem_Description&lt;br&gt;-Warranty&lt;br&gt;-Purchase_Date&lt;br&gt;" style="text;strokeColor=none;fillColor=none;align=left;verticalAlign=top;spacingLeft=4;spacingRight=4;overflow=hidden;rotatable=0;points=[[0,0.5],[1,0.5]];portConstraint=eastwest;whiteSpace=wrap;html=1;" parent="PmTxJQ6TxqtGZhDE5tPC-34" vertex="1">
          <mxGeometry y="26" width="160" height="84" as="geometry" />
        </mxCell>
        <mxCell id="PmTxJQ6TxqtGZhDE5tPC-38" value="Home Page" style="swimlane;fontStyle=1;align=center;verticalAlign=top;childLayout=stackLayout;horizontal=1;startSize=26;horizontalStack=0;resizeParent=1;resizeParentMax=0;resizeLast=0;collapsible=1;marginBottom=0;whiteSpace=wrap;html=1;" parent="1" vertex="1">
          <mxGeometry x="990" y="200" width="160" height="90" as="geometry" />
        </mxCell>
        <mxCell id="PmTxJQ6TxqtGZhDE5tPC-39" value="-Recommended_Products&lt;br&gt;-Recently_Viewed&lt;br&gt;-New_Offers&lt;br&gt;-Coockies" style="text;strokeColor=none;fillColor=none;align=left;verticalAlign=top;spacingLeft=4;spacingRight=4;overflow=hidden;rotatable=0;points=[[0,0.5],[1,0.5]];portConstraint=eastwest;whiteSpace=wrap;html=1;" parent="PmTxJQ6TxqtGZhDE5tPC-38" vertex="1">
          <mxGeometry y="26" width="160" height="64" as="geometry" />
        </mxCell>
        <mxCell id="PmTxJQ6TxqtGZhDE5tPC-109" style="edgeStyle=orthogonalEdgeStyle;rounded=0;orthogonalLoop=1;jettySize=auto;html=1;exitX=0.5;exitY=0;exitDx=0;exitDy=0;entryX=1;entryY=0.5;entryDx=0;entryDy=0;endArrow=block;endFill=0;" parent="1" source="PmTxJQ6TxqtGZhDE5tPC-42" target="PmTxJQ6TxqtGZhDE5tPC-2" edge="1">
          <mxGeometry relative="1" as="geometry" />
        </mxCell>
        <mxCell id="PmTxJQ6TxqtGZhDE5tPC-42" value="Admin" style="swimlane;fontStyle=1;align=center;verticalAlign=top;childLayout=stackLayout;horizontal=1;startSize=26;horizontalStack=0;resizeParent=1;resizeParentMax=0;resizeLast=0;collapsible=1;marginBottom=0;whiteSpace=wrap;html=1;" parent="1" vertex="1">
          <mxGeometry x="1530" y="100" width="160" height="70" as="geometry" />
        </mxCell>
        <mxCell id="PmTxJQ6TxqtGZhDE5tPC-43" value="-Banned_Users_List&lt;br&gt;-Admin_ID" style="text;strokeColor=none;fillColor=none;align=left;verticalAlign=top;spacingLeft=4;spacingRight=4;overflow=hidden;rotatable=0;points=[[0,0.5],[1,0.5]];portConstraint=eastwest;whiteSpace=wrap;html=1;" parent="PmTxJQ6TxqtGZhDE5tPC-42" vertex="1">
          <mxGeometry y="26" width="160" height="44" as="geometry" />
        </mxCell>
        <mxCell id="PmTxJQ6TxqtGZhDE5tPC-111" style="edgeStyle=orthogonalEdgeStyle;rounded=0;orthogonalLoop=1;jettySize=auto;html=1;exitX=0.5;exitY=0;exitDx=0;exitDy=0;entryX=0.395;entryY=1.019;entryDx=0;entryDy=0;entryPerimeter=0;endArrow=none;endFill=0;" parent="1" source="PmTxJQ6TxqtGZhDE5tPC-46" target="PmTxJQ6TxqtGZhDE5tPC-43" edge="1">
          <mxGeometry relative="1" as="geometry">
            <mxPoint x="1600.7199999999998" y="186.26" as="targetPoint" />
          </mxGeometry>
        </mxCell>
        <mxCell id="PmTxJQ6TxqtGZhDE5tPC-46" value="Report and Analytics" style="swimlane;fontStyle=1;align=center;verticalAlign=top;childLayout=stackLayout;horizontal=1;startSize=26;horizontalStack=0;resizeParent=1;resizeParentMax=0;resizeLast=0;collapsible=1;marginBottom=0;whiteSpace=wrap;html=1;" parent="1" vertex="1">
          <mxGeometry x="1530" y="300" width="160" height="70" as="geometry" />
        </mxCell>
        <mxCell id="PmTxJQ6TxqtGZhDE5tPC-47" value="-Data_Storage&lt;br&gt;-Reported_Companies" style="text;strokeColor=none;fillColor=none;align=left;verticalAlign=top;spacingLeft=4;spacingRight=4;overflow=hidden;rotatable=0;points=[[0,0.5],[1,0.5]];portConstraint=eastwest;whiteSpace=wrap;html=1;" parent="PmTxJQ6TxqtGZhDE5tPC-46" vertex="1">
          <mxGeometry y="26" width="160" height="44" as="geometry" />
        </mxCell>
        <mxCell id="PmTxJQ6TxqtGZhDE5tPC-50" value="Buy" style="swimlane;fontStyle=1;align=center;verticalAlign=top;childLayout=stackLayout;horizontal=1;startSize=26;horizontalStack=0;resizeParent=1;resizeParentMax=0;resizeLast=0;collapsible=1;marginBottom=0;whiteSpace=wrap;html=1;" parent="1" vertex="1">
          <mxGeometry x="580" y="410" width="160" height="110" as="geometry" />
        </mxCell>
        <mxCell id="PmTxJQ6TxqtGZhDE5tPC-51" value="-Product Name&lt;br&gt;-Price&lt;br&gt;-Picture&lt;br&gt;-Comments&lt;br&gt;-Rating" style="text;strokeColor=none;fillColor=none;align=left;verticalAlign=top;spacingLeft=4;spacingRight=4;overflow=hidden;rotatable=0;points=[[0,0.5],[1,0.5]];portConstraint=eastwest;whiteSpace=wrap;html=1;" parent="PmTxJQ6TxqtGZhDE5tPC-50" vertex="1">
          <mxGeometry y="26" width="160" height="84" as="geometry" />
        </mxCell>
        <mxCell id="PmTxJQ6TxqtGZhDE5tPC-105" style="edgeStyle=orthogonalEdgeStyle;rounded=0;orthogonalLoop=1;jettySize=auto;html=1;exitX=0.5;exitY=0;exitDx=0;exitDy=0;entryX=0;entryY=0.25;entryDx=0;entryDy=0;endArrow=none;endFill=0;" parent="1" source="PmTxJQ6TxqtGZhDE5tPC-54" target="PmTxJQ6TxqtGZhDE5tPC-38" edge="1">
          <mxGeometry relative="1" as="geometry" />
        </mxCell>
        <mxCell id="PmTxJQ6TxqtGZhDE5tPC-54" value="Auction" style="swimlane;fontStyle=1;align=center;verticalAlign=top;childLayout=stackLayout;horizontal=1;startSize=26;horizontalStack=0;resizeParent=1;resizeParentMax=0;resizeLast=0;collapsible=1;marginBottom=0;whiteSpace=wrap;html=1;" parent="1" vertex="1">
          <mxGeometry x="720" y="580" width="160" height="90" as="geometry" />
        </mxCell>
        <mxCell id="PmTxJQ6TxqtGZhDE5tPC-55" value="-Item_ID&lt;br&gt;-Current_Price&lt;br&gt;-Timer&lt;br&gt;-Customer_ID" style="text;strokeColor=none;fillColor=none;align=left;verticalAlign=top;spacingLeft=4;spacingRight=4;overflow=hidden;rotatable=0;points=[[0,0.5],[1,0.5]];portConstraint=eastwest;whiteSpace=wrap;html=1;" parent="PmTxJQ6TxqtGZhDE5tPC-54" vertex="1">
          <mxGeometry y="26" width="160" height="64" as="geometry" />
        </mxCell>
        <mxCell id="PmTxJQ6TxqtGZhDE5tPC-113" style="edgeStyle=orthogonalEdgeStyle;rounded=0;orthogonalLoop=1;jettySize=auto;html=1;exitX=0.5;exitY=0;exitDx=0;exitDy=0;entryX=0;entryY=0.5;entryDx=0;entryDy=0;endArrow=block;endFill=0;" parent="1" source="PmTxJQ6TxqtGZhDE5tPC-58" target="PmTxJQ6TxqtGZhDE5tPC-55" edge="1">
          <mxGeometry relative="1" as="geometry" />
        </mxCell>
        <mxCell id="PmTxJQ6TxqtGZhDE5tPC-58" value="Create" style="swimlane;fontStyle=1;align=center;verticalAlign=top;childLayout=stackLayout;horizontal=1;startSize=26;horizontalStack=0;resizeParent=1;resizeParentMax=0;resizeLast=0;collapsible=1;marginBottom=0;whiteSpace=wrap;html=1;" parent="1" vertex="1">
          <mxGeometry x="710" y="790" width="160" height="110" as="geometry" />
        </mxCell>
        <mxCell id="PmTxJQ6TxqtGZhDE5tPC-59" value="-Item_Name&lt;br&gt;-Item_Description&lt;br&gt;-Starting_Price&lt;br&gt;-Item_Picture&lt;br&gt;-New/Used" style="text;strokeColor=none;fillColor=none;align=left;verticalAlign=top;spacingLeft=4;spacingRight=4;overflow=hidden;rotatable=0;points=[[0,0.5],[1,0.5]];portConstraint=eastwest;whiteSpace=wrap;html=1;" parent="PmTxJQ6TxqtGZhDE5tPC-58" vertex="1">
          <mxGeometry y="26" width="160" height="84" as="geometry" />
        </mxCell>
        <mxCell id="PmTxJQ6TxqtGZhDE5tPC-114" style="edgeStyle=orthogonalEdgeStyle;rounded=0;orthogonalLoop=1;jettySize=auto;html=1;exitX=0.5;exitY=0;exitDx=0;exitDy=0;entryX=1;entryY=0.5;entryDx=0;entryDy=0;endArrow=block;endFill=0;" parent="1" source="PmTxJQ6TxqtGZhDE5tPC-62" target="PmTxJQ6TxqtGZhDE5tPC-55" edge="1">
          <mxGeometry relative="1" as="geometry" />
        </mxCell>
        <mxCell id="PmTxJQ6TxqtGZhDE5tPC-62" value="Join" style="swimlane;fontStyle=1;align=center;verticalAlign=top;childLayout=stackLayout;horizontal=1;startSize=26;horizontalStack=0;resizeParent=1;resizeParentMax=0;resizeLast=0;collapsible=1;marginBottom=0;whiteSpace=wrap;html=1;" parent="1" vertex="1">
          <mxGeometry x="940" y="790" width="160" height="52" as="geometry" />
        </mxCell>
        <mxCell id="PmTxJQ6TxqtGZhDE5tPC-63" value="-Offer" style="text;strokeColor=none;fillColor=none;align=left;verticalAlign=top;spacingLeft=4;spacingRight=4;overflow=hidden;rotatable=0;points=[[0,0.5],[1,0.5]];portConstraint=eastwest;whiteSpace=wrap;html=1;" parent="PmTxJQ6TxqtGZhDE5tPC-62" vertex="1">
          <mxGeometry y="26" width="160" height="26" as="geometry" />
        </mxCell>
        <mxCell id="PmTxJQ6TxqtGZhDE5tPC-106" style="edgeStyle=orthogonalEdgeStyle;rounded=0;orthogonalLoop=1;jettySize=auto;html=1;exitX=0.5;exitY=0;exitDx=0;exitDy=0;endArrow=none;endFill=0;entryX=0;entryY=0.25;entryDx=0;entryDy=0;" parent="1" source="PmTxJQ6TxqtGZhDE5tPC-66" target="PmTxJQ6TxqtGZhDE5tPC-38" edge="1">
          <mxGeometry relative="1" as="geometry">
            <mxPoint x="900" y="180" as="targetPoint" />
            <Array as="points">
              <mxPoint x="900" y="220" />
              <mxPoint x="990" y="220" />
            </Array>
          </mxGeometry>
        </mxCell>
        <mxCell id="PmTxJQ6TxqtGZhDE5tPC-66" value="Cart" style="swimlane;fontStyle=1;align=center;verticalAlign=top;childLayout=stackLayout;horizontal=1;startSize=26;horizontalStack=0;resizeParent=1;resizeParentMax=0;resizeLast=0;collapsible=1;marginBottom=0;whiteSpace=wrap;html=1;" parent="1" vertex="1">
          <mxGeometry x="820" y="380" width="160" height="90" as="geometry" />
        </mxCell>
        <mxCell id="PmTxJQ6TxqtGZhDE5tPC-67" value="-Products&lt;br&gt;-Price&lt;br&gt;-Code_Order&lt;br&gt;-Estimated_Time" style="text;strokeColor=none;fillColor=none;align=left;verticalAlign=top;spacingLeft=4;spacingRight=4;overflow=hidden;rotatable=0;points=[[0,0.5],[1,0.5]];portConstraint=eastwest;whiteSpace=wrap;html=1;" parent="PmTxJQ6TxqtGZhDE5tPC-66" vertex="1">
          <mxGeometry y="26" width="160" height="64" as="geometry" />
        </mxCell>
        <mxCell id="PmTxJQ6TxqtGZhDE5tPC-107" style="edgeStyle=orthogonalEdgeStyle;rounded=0;orthogonalLoop=1;jettySize=auto;html=1;exitX=0.5;exitY=0;exitDx=0;exitDy=0;entryX=0.489;entryY=1.019;entryDx=0;entryDy=0;entryPerimeter=0;endArrow=none;endFill=0;" parent="1" source="PmTxJQ6TxqtGZhDE5tPC-70" target="PmTxJQ6TxqtGZhDE5tPC-39" edge="1">
          <mxGeometry relative="1" as="geometry">
            <mxPoint x="989.52" y="264.99199999999996" as="targetPoint" />
            <Array as="points">
              <mxPoint x="1090" y="335" />
              <mxPoint x="1068" y="335" />
            </Array>
          </mxGeometry>
        </mxCell>
        <mxCell id="PmTxJQ6TxqtGZhDE5tPC-70" value="Spin the Wheel" style="swimlane;fontStyle=1;align=center;verticalAlign=top;childLayout=stackLayout;horizontal=1;startSize=26;horizontalStack=0;resizeParent=1;resizeParentMax=0;resizeLast=0;collapsible=1;marginBottom=0;whiteSpace=wrap;html=1;" parent="1" vertex="1">
          <mxGeometry x="1010" y="380" width="160" height="90" as="geometry" />
        </mxCell>
        <mxCell id="PmTxJQ6TxqtGZhDE5tPC-71" value="-Product_Name&lt;br&gt;-Product_Picture&lt;br&gt;-Discount_Price&lt;br&gt;-Timer" style="text;strokeColor=none;fillColor=none;align=left;verticalAlign=top;spacingLeft=4;spacingRight=4;overflow=hidden;rotatable=0;points=[[0,0.5],[1,0.5]];portConstraint=eastwest;whiteSpace=wrap;html=1;" parent="PmTxJQ6TxqtGZhDE5tPC-70" vertex="1">
          <mxGeometry y="26" width="160" height="64" as="geometry" />
        </mxCell>
        <mxCell id="PmTxJQ6TxqtGZhDE5tPC-108" style="edgeStyle=orthogonalEdgeStyle;rounded=0;orthogonalLoop=1;jettySize=auto;html=1;exitX=0.5;exitY=0;exitDx=0;exitDy=0;entryX=1;entryY=0.5;entryDx=0;entryDy=0;endArrow=none;endFill=0;" parent="1" source="PmTxJQ6TxqtGZhDE5tPC-74" target="PmTxJQ6TxqtGZhDE5tPC-39" edge="1">
          <mxGeometry relative="1" as="geometry">
            <mxPoint x="1150" y="273" as="targetPoint" />
          </mxGeometry>
        </mxCell>
        <mxCell id="PmTxJQ6TxqtGZhDE5tPC-74" value="Invite Friend" style="swimlane;fontStyle=1;align=center;verticalAlign=top;childLayout=stackLayout;horizontal=1;startSize=26;horizontalStack=0;resizeParent=1;resizeParentMax=0;resizeLast=0;collapsible=1;marginBottom=0;whiteSpace=wrap;html=1;" parent="1" vertex="1">
          <mxGeometry x="1200" y="380" width="160" height="80" as="geometry" />
        </mxCell>
        <mxCell id="PmTxJQ6TxqtGZhDE5tPC-75" value="-Friends_List&lt;br&gt;-Active_Friends&lt;br&gt;-Invite_Link" style="text;strokeColor=none;fillColor=none;align=left;verticalAlign=top;spacingLeft=4;spacingRight=4;overflow=hidden;rotatable=0;points=[[0,0.5],[1,0.5]];portConstraint=eastwest;whiteSpace=wrap;html=1;" parent="PmTxJQ6TxqtGZhDE5tPC-74" vertex="1">
          <mxGeometry y="26" width="160" height="54" as="geometry" />
        </mxCell>
        <mxCell id="PmTxJQ6TxqtGZhDE5tPC-110" style="edgeStyle=orthogonalEdgeStyle;rounded=0;orthogonalLoop=1;jettySize=auto;html=1;exitX=0.5;exitY=0;exitDx=0;exitDy=0;entryX=1;entryY=0.25;entryDx=0;entryDy=0;endArrow=none;endFill=0;" parent="1" source="PmTxJQ6TxqtGZhDE5tPC-78" target="PmTxJQ6TxqtGZhDE5tPC-38" edge="1">
          <mxGeometry relative="1" as="geometry" />
        </mxCell>
        <mxCell id="PmTxJQ6TxqtGZhDE5tPC-78" value="Search" style="swimlane;fontStyle=1;align=center;verticalAlign=top;childLayout=stackLayout;horizontal=1;startSize=26;horizontalStack=0;resizeParent=1;resizeParentMax=0;resizeLast=0;collapsible=1;marginBottom=0;whiteSpace=wrap;html=1;" parent="1" vertex="1">
          <mxGeometry x="1400" y="430" width="160" height="70" as="geometry" />
        </mxCell>
        <mxCell id="PmTxJQ6TxqtGZhDE5tPC-79" value="-Recent_Search&lt;br&gt;-Suggested_Searches" style="text;strokeColor=none;fillColor=none;align=left;verticalAlign=top;spacingLeft=4;spacingRight=4;overflow=hidden;rotatable=0;points=[[0,0.5],[1,0.5]];portConstraint=eastwest;whiteSpace=wrap;html=1;" parent="PmTxJQ6TxqtGZhDE5tPC-78" vertex="1">
          <mxGeometry y="26" width="160" height="44" as="geometry" />
        </mxCell>
        <mxCell id="PmTxJQ6TxqtGZhDE5tPC-85" style="edgeStyle=orthogonalEdgeStyle;rounded=0;orthogonalLoop=1;jettySize=auto;html=1;exitX=0.5;exitY=0;exitDx=0;exitDy=0;endArrow=block;endFill=0;entryX=0.497;entryY=1.019;entryDx=0;entryDy=0;entryPerimeter=0;" parent="1" source="PmTxJQ6TxqtGZhDE5tPC-14" target="PmTxJQ6TxqtGZhDE5tPC-2" edge="1">
          <mxGeometry relative="1" as="geometry">
            <mxPoint x="130" y="210" as="sourcePoint" />
            <mxPoint x="760" y="90" as="targetPoint" />
            <Array as="points">
              <mxPoint x="490" y="150" />
              <mxPoint x="780" y="150" />
            </Array>
          </mxGeometry>
        </mxCell>
        <mxCell id="PmTxJQ6TxqtGZhDE5tPC-86" style="edgeStyle=orthogonalEdgeStyle;rounded=0;orthogonalLoop=1;jettySize=auto;html=1;exitX=0.5;exitY=0;exitDx=0;exitDy=0;endArrow=none;endFill=0;entryX=0.762;entryY=1.027;entryDx=0;entryDy=0;entryPerimeter=0;" parent="1" source="PmTxJQ6TxqtGZhDE5tPC-38" target="PmTxJQ6TxqtGZhDE5tPC-2" edge="1">
          <mxGeometry relative="1" as="geometry">
            <mxPoint x="140" y="220" as="sourcePoint" />
            <mxPoint x="860" y="73" as="targetPoint" />
            <Array as="points">
              <mxPoint x="1070" y="140" />
              <mxPoint x="822" y="140" />
            </Array>
          </mxGeometry>
        </mxCell>
        <mxCell id="PmTxJQ6TxqtGZhDE5tPC-112" style="edgeStyle=orthogonalEdgeStyle;rounded=0;orthogonalLoop=1;jettySize=auto;html=1;exitX=0.5;exitY=0;exitDx=0;exitDy=0;entryX=0.395;entryY=0.971;entryDx=0;entryDy=0;entryPerimeter=0;endArrow=none;endFill=0;" parent="1" source="PmTxJQ6TxqtGZhDE5tPC-87" target="PmTxJQ6TxqtGZhDE5tPC-79" edge="1">
          <mxGeometry relative="1" as="geometry">
            <mxPoint x="1475.6799999999998" y="516.26" as="targetPoint" />
            <Array as="points">
              <mxPoint x="1480" y="545" />
              <mxPoint x="1463" y="545" />
            </Array>
          </mxGeometry>
        </mxCell>
        <mxCell id="PmTxJQ6TxqtGZhDE5tPC-87" value="Search and Filtering" style="swimlane;fontStyle=1;align=center;verticalAlign=top;childLayout=stackLayout;horizontal=1;startSize=26;horizontalStack=0;resizeParent=1;resizeParentMax=0;resizeLast=0;collapsible=1;marginBottom=0;whiteSpace=wrap;html=1;" parent="1" vertex="1">
          <mxGeometry x="1400" y="580" width="160" height="70" as="geometry" />
        </mxCell>
        <mxCell id="PmTxJQ6TxqtGZhDE5tPC-88" value="-Filters&lt;br&gt;-Sort_By" style="text;strokeColor=none;fillColor=none;align=left;verticalAlign=top;spacingLeft=4;spacingRight=4;overflow=hidden;rotatable=0;points=[[0,0.5],[1,0.5]];portConstraint=eastwest;whiteSpace=wrap;html=1;" parent="PmTxJQ6TxqtGZhDE5tPC-87" vertex="1">
          <mxGeometry y="26" width="160" height="44" as="geometry" />
        </mxCell>
        <mxCell id="PmTxJQ6TxqtGZhDE5tPC-92" style="edgeStyle=orthogonalEdgeStyle;rounded=0;orthogonalLoop=1;jettySize=auto;html=1;exitX=0.45;exitY=1.038;exitDx=0;exitDy=0;entryX=0.5;entryY=0;entryDx=0;entryDy=0;endArrow=none;endFill=0;exitPerimeter=0;" parent="1" source="PmTxJQ6TxqtGZhDE5tPC-9" target="PmTxJQ6TxqtGZhDE5tPC-18" edge="1">
          <mxGeometry relative="1" as="geometry">
            <Array as="points">
              <mxPoint x="112" y="287" />
              <mxPoint x="110" y="287" />
              <mxPoint x="110" y="550" />
            </Array>
          </mxGeometry>
        </mxCell>
        <mxCell id="PmTxJQ6TxqtGZhDE5tPC-93" style="edgeStyle=orthogonalEdgeStyle;rounded=0;orthogonalLoop=1;jettySize=auto;html=1;exitX=1;exitY=0.5;exitDx=0;exitDy=0;entryX=0;entryY=0;entryDx=0;entryDy=0;endArrow=block;endFill=0;" parent="1" source="PmTxJQ6TxqtGZhDE5tPC-19" target="PmTxJQ6TxqtGZhDE5tPC-22" edge="1">
          <mxGeometry relative="1" as="geometry">
            <mxPoint x="210" y="623" as="sourcePoint" />
            <Array as="points">
              <mxPoint x="230" y="589" />
              <mxPoint x="230" y="678" />
              <mxPoint x="160" y="678" />
            </Array>
          </mxGeometry>
        </mxCell>
        <mxCell id="PmTxJQ6TxqtGZhDE5tPC-97" style="edgeStyle=orthogonalEdgeStyle;rounded=0;orthogonalLoop=1;jettySize=auto;html=1;exitX=0.473;exitY=0.971;exitDx=0;exitDy=0;entryX=0.5;entryY=0;entryDx=0;entryDy=0;endArrow=none;endFill=0;exitPerimeter=0;" parent="1" source="PmTxJQ6TxqtGZhDE5tPC-15" target="PmTxJQ6TxqtGZhDE5tPC-26" edge="1">
          <mxGeometry relative="1" as="geometry">
            <mxPoint x="410" y="273" as="sourcePoint" />
            <Array as="points">
              <mxPoint x="486" y="320" />
              <mxPoint x="390" y="320" />
            </Array>
          </mxGeometry>
        </mxCell>
        <mxCell id="PmTxJQ6TxqtGZhDE5tPC-98" style="edgeStyle=orthogonalEdgeStyle;rounded=0;orthogonalLoop=1;jettySize=auto;html=1;exitX=0;exitY=0.5;exitDx=0;exitDy=0;entryX=0.669;entryY=-0.006;entryDx=0;entryDy=0;entryPerimeter=0;endArrow=block;endFill=0;" parent="1" target="PmTxJQ6TxqtGZhDE5tPC-22" edge="1">
          <mxGeometry relative="1" as="geometry">
            <mxPoint x="310" y="639.0000000000002" as="sourcePoint" />
          </mxGeometry>
        </mxCell>
        <mxCell id="PmTxJQ6TxqtGZhDE5tPC-99" style="edgeStyle=orthogonalEdgeStyle;rounded=0;orthogonalLoop=1;jettySize=auto;html=1;exitX=0;exitY=0.5;exitDx=0;exitDy=0;entryX=0.75;entryY=0;entryDx=0;entryDy=0;endArrow=none;endFill=0;" parent="1" source="PmTxJQ6TxqtGZhDE5tPC-51" target="PmTxJQ6TxqtGZhDE5tPC-30" edge="1">
          <mxGeometry relative="1" as="geometry">
            <Array as="points">
              <mxPoint x="490" y="449" />
              <mxPoint x="490" y="900" />
            </Array>
          </mxGeometry>
        </mxCell>
        <mxCell id="PmTxJQ6TxqtGZhDE5tPC-100" style="edgeStyle=orthogonalEdgeStyle;rounded=0;orthogonalLoop=1;jettySize=auto;html=1;exitX=1;exitY=0.5;exitDx=0;exitDy=0;entryX=0.427;entryY=0.023;entryDx=0;entryDy=0;entryPerimeter=0;endArrow=none;endFill=0;" parent="1" source="PmTxJQ6TxqtGZhDE5tPC-23" target="PmTxJQ6TxqtGZhDE5tPC-30" edge="1">
          <mxGeometry relative="1" as="geometry" />
        </mxCell>
        <mxCell id="PmTxJQ6TxqtGZhDE5tPC-101" style="edgeStyle=orthogonalEdgeStyle;rounded=0;orthogonalLoop=1;jettySize=auto;html=1;exitX=0;exitY=0.5;exitDx=0;exitDy=0;entryX=1;entryY=0.25;entryDx=0;entryDy=0;endArrow=none;endFill=0;" parent="1" target="PmTxJQ6TxqtGZhDE5tPC-22" edge="1">
          <mxGeometry relative="1" as="geometry">
            <mxPoint x="580" y="554" as="sourcePoint" />
            <Array as="points">
              <mxPoint x="480" y="483" />
              <mxPoint x="480" y="742" />
            </Array>
          </mxGeometry>
        </mxCell>
        <mxCell id="PmTxJQ6TxqtGZhDE5tPC-102" style="edgeStyle=orthogonalEdgeStyle;rounded=0;orthogonalLoop=1;jettySize=auto;html=1;exitX=0;exitY=0.5;exitDx=0;exitDy=0;entryX=0.5;entryY=0;entryDx=0;entryDy=0;endArrow=none;endFill=0;" parent="1" target="PmTxJQ6TxqtGZhDE5tPC-34" edge="1">
          <mxGeometry relative="1" as="geometry">
            <mxPoint x="580" y="554" as="sourcePoint" />
          </mxGeometry>
        </mxCell>
        <mxCell id="PmTxJQ6TxqtGZhDE5tPC-115" value="-Product_ID" style="text;html=1;align=center;verticalAlign=middle;resizable=0;points=[];autosize=1;strokeColor=none;fillColor=none;" parent="1" vertex="1">
          <mxGeometry x="305" y="628" width="90" height="30" as="geometry" />
        </mxCell>
        <mxCell id="yDPEOJnb7sARp9clplRM-1" style="edgeStyle=orthogonalEdgeStyle;rounded=0;orthogonalLoop=1;jettySize=auto;html=1;exitX=1;exitY=0.5;exitDx=0;exitDy=0;endArrow=none;endFill=0;" edge="1" parent="1" source="PmTxJQ6TxqtGZhDE5tPC-15" target="PmTxJQ6TxqtGZhDE5tPC-50">
          <mxGeometry relative="1" as="geometry" />
        </mxCell>
      </root>
    </mxGraphModel>
  </diagram>
</mxfile>
